<svg xmlns="http://www.w3.org/2000/svg" viewBox="0 0 1200 760" role="img" aria-label="高鐵轉乘示意">
  <defs>
    <linearGradient id="bg" x1="0" x2="1" y1="0" y2="1">
      <stop offset="0" stop-color="#f7efe3"/>
      <stop offset="1" stop-color="#e9edf4"/>
    </linearGradient>
    <filter id="shadow" x="-20%" y="-20%" width="140%" height="140%">
      <feDropShadow dx="0" dy="24" stdDeviation="24" flood-color="#1f1a16" flood-opacity=".16"/>
    </filter>
  </defs>
  <rect width="1200" height="760" fill="url(#bg)"/>
  <path d="M120 560H1080" stroke="#c8a056" stroke-width="18" stroke-linecap="round"/>
  <path d="M120 610H1080" stroke="#2d5a44" stroke-width="8" stroke-linecap="round" opacity=".75"/>
  <g filter="url(#shadow)">
    <path d="M205 385 C310 254 485 185 776 190 C902 193 1002 263 1042 356 C934 400 769 422 565 422 H260 C214 422 185 410 205 385Z" fill="#fffdf9" stroke="#e1d6c6" stroke-width="6"/>
    <path d="M373 275H780C850 275 904 297 940 334H336C344 311 356 292 373 275Z" fill="#dce9df"/>
    <path d="M288 463H950" stroke="#1f1a16" stroke-width="18" stroke-linecap="round"/>
    <circle cx="390" cy="474" r="31" fill="#1f1a16"/>
    <circle cx="830" cy="474" r="31" fill="#1f1a16"/>
  </g>
  <g>
    <circle cx="270" cy="182" r="54" fill="#2d5a44"/>
    <path d="M270 150v64M238 182h64" stroke="#fffdf9" stroke-width="14" stroke-linecap="round"/>
    <circle cx="930" cy="162" r="54" fill="#c8a056"/>
    <path d="M904 162h52M930 136v52" stroke="#fffdf9" stroke-width="14" stroke-linecap="round"/>
  </g>
</svg>
